<svg width="50" height="50" viewBox="0 0 50 50" fill="none" xmlns="http://www.w3.org/2000/svg">
<path d="M37.5002 10.4167V8.33333C37.5002 7.7808 37.2807 7.25089 36.89 6.86019C36.4993 6.46949 35.9694 6.25 35.4168 6.25H18.571C18.0185 6.25012 17.4887 6.46969 17.0981 6.86042L8.94391 15.0146C8.55319 15.4052 8.33361 15.935 8.3335 16.4875V41.6667C8.3335 42.2192 8.55299 42.7491 8.94369 43.1398C9.33439 43.5305 9.86429 43.75 10.4168 43.75H35.4168C35.9694 43.75 36.4993 43.5305 36.89 43.1398C37.2807 42.7491 37.5002 42.2192 37.5002 41.6667V31.25M18.7502 6.25V14.5833C18.7502 15.1359 18.5307 15.6658 18.14 16.0565C17.7493 16.4472 17.2194 16.6667 16.6668 16.6667H8.3335M32.0481 18.275L37.7668 23.9958M40.2981 15.8583C41.1129 16.6747 41.5706 17.781 41.5706 18.9344C41.5706 20.0878 41.1129 21.1941 40.2981 22.0104L26.4439 35.8562L18.7502 37.3958L20.2897 29.7042L34.1356 15.8583C34.5396 15.4525 35.0197 15.1306 35.5485 14.9108C36.0773 14.6911 36.6442 14.578 37.2168 14.578C37.7894 14.578 38.3564 14.6911 38.8852 14.9108C39.4139 15.1306 39.8941 15.4525 40.2981 15.8583Z" stroke="black" stroke-width="2" stroke-linecap="round" stroke-linejoin="round"/>
</svg>
